<?xml version="1.0" standalone="no"?><!DOCTYPE svg PUBLIC "-//W3C//DTD SVG 1.1//EN" "http://www.w3.org/Graphics/SVG/1.1/DTD/svg11.dtd"><svg t="1756280512970" class="icon" viewBox="0 0 1024 1024" version="1.1" xmlns="http://www.w3.org/2000/svg" p-id="32551" xmlns:xlink="http://www.w3.org/1999/xlink" width="200" height="200"><path d="M1022.977707 311.466667v-0.213334c0.426667-0.96 0.746667-2.026667 0.853333-3.093333s0-0.426667 0-0.64c0-0.853333 0.106667-1.6 0.106667-2.453333 0-0.426667-0.106667-0.746667-0.106667-1.066667a7.253333 7.253333 0 0 0-0.32-2.026667c0-0.426667-0.32-0.853333-0.426667-1.28-0.213333-0.533333-0.32-1.173333-0.64-1.706666l-0.96-1.6c-0.213333-0.32-0.32-0.746667-0.64-1.066667l-56.426666-75.306667C913.004373 152.426667 849.964373 94.506667 777.11104 48.64L703.617707 2.453333a16.106667 16.106667 0 0 0-18.026667 0.64l-51.2 37.76s-0.32 0.32-0.533333 0.426667c-0.213333 0.106667-0.426667 0.213333-0.533334 0.426667-0.213333 0.213333-0.426667 0.426667-0.64 0.746666-0.426667 0.426667-0.746667 0.746667-1.066666 1.173334l-0.96 1.28c-0.32 0.426667-0.533333 0.853333-0.853334 1.28-0.213333 0.426667-0.426667 0.96-0.64 1.386666-0.213333 0.426667-0.426667 0.96-0.533333 1.386667-0.106667 0.533333-0.32 0.96-0.426667 1.493333 0 0.533333-0.213333 0.96-0.213333 1.493334v2.986666c0 0.426667 0.106667 1.066667 0.213333 1.493334 0 0.533333 0.213333 0.96 0.32 1.493333 0.106667 0.533333 0.32 1.066667 0.533334 1.493333 0.213333 0.426667 0.426667 0.96 0.64 1.386667 0.213333 0.533333 0.533333 0.96 0.853333 1.493333 0.213333 0.213333 0.32 0.533333 0.426667 0.746667 0.106667 0.213333 0.32 0.32 0.426666 0.533333 0.106667 0.213333 0.213333 0.426667 0.426667 0.533334 16.533333 18.773333 36.373333 33.706667 53.76 46.826666 41.28 31.04 50.88 42.346667 39.893333 62.826667-35.733333 67.52-140.266667 83.306667-232.853333 35.2-12.8-6.72-24.96-14.4-36.266667-23.04-0.213333-0.213333-0.533333-0.32-0.746666-0.426667a9.738667 9.738667 0 0 0-1.386667-0.853333c-0.426667-0.213333-0.96-0.426667-1.386667-0.64-0.426667-0.213333-0.96-0.32-1.386666-0.533333-0.533333-0.213333-1.066667-0.32-1.6-0.426667-0.426667 0-0.853333-0.106667-1.386667-0.213333H445.377707c-0.533333 0-1.066667 0.106667-1.706667 0.213333-0.426667 0-0.96 0.213333-1.386667 0.32-0.533333 0.106667-1.066667 0.32-1.6 0.533333-0.426667 0.213333-0.853333 0.32-1.28 0.533334l-1.6 0.96a2.24 2.24 0 0 0-0.64 0.426666L362.71104 240.64c-1.493333 1.173333-2.88 2.56-3.946667 4.16L212.844373 468.373333s-0.426667 0.746667-0.64 1.066667L49.75104 718.293333C15.724373 770.773333-2.40896 832.106667 0.257707 886.506667c2.56 55.04 3.733333 80.106667 41.92 131.093333 3.093333 4.16 7.893333 6.4 12.8 6.4 3.306667 0 6.613333-1.066667 9.493333-3.093333l74.133333-54.613334 37.653334 50.24c3.093333 4.16 8 6.4 12.8 6.4a16 16 0 0 0 12.8-25.6l-37.546667-50.026666 60.48-44.586667 37.653333 50.24c3.093333 4.16 8 6.4 12.8 6.4a16 16 0 0 0 12.8-25.6l-37.546666-50.026667 60.48-44.586666 37.653333 50.24c3.093333 4.16 8 6.4 12.8 6.4a16 16 0 0 0 12.8-25.6l-37.546667-50.026667 477.973334-352.213333 37.653333 50.24c3.093333 4.16 8 6.4 12.8 6.4a16 16 0 0 0 12.8-25.6l-37.546667-50.026667 60.48-44.586667 37.653334 50.24c3.093333 4.16 8 6.4 12.8 6.4a16 16 0 0 0 12.8-25.6l-37.546667-50.026666 90.666667-66.88c0.853333-0.64 1.706667-1.386667 2.346666-2.133334 0.533333-0.533333 0.96-1.28 1.386667-1.92 0.106667-0.213333 0.32-0.426667 0.426667-0.64 0.533333-0.853333 0.853333-1.706667 1.28-2.56zM552.257707 621.76L248.897707 472.213333l44.8-68.586666 330.666666 165.013333-72.106666 53.12zM455.19104 693.333333L189.057707 563.946667l42.24-64.746667 291.946666 144-68.053333 50.133333z m-70.933333-428.373333l62.826666-46.293333c9.92 6.826667 20.053333 13.333333 30.826667 18.986666 40.64 21.12 83.413333 31.253333 123.413333 31.253334 66.453333 0 125.013333-27.946667 152.426667-79.786667 25.386667-47.573333-14.08-77.226667-48.96-103.466667-12.48-9.386667-25.173333-18.986667-36.8-29.866666l27.626667-20.373334 64.32 40.426667c69.44 43.733333 129.6 98.986667 178.666666 164.48l46.72 62.293333-332.16 244.693334L311.404373 376.533333l72.853334-111.573333zM58.604373 985.493333c-23.253333-34.346667-24.106667-53.44-26.346666-100.48-2.346667-47.893333 13.866667-102.186667 44.373333-149.013333l94.72-145.066667 254.72 123.84L58.604373 985.493333z" p-id="32552"></path></svg>